<svg width="233" height="50" viewBox="0 0 233 50" fill="none" xmlns="http://www.w3.org/2000/svg">
<g clip-path="url(#clip0_154_2)">
<path d="M39.5833 29.1667V35.4167H45.8333V39.5833H39.5833V45.8333H35.4166V39.5833H29.1666V35.4167H35.4166V29.1667H39.5833ZM42.1729 9.91041C46.6729 14.4229 47.025 21.4875 43.2291 26.3896C41.5125 25.5 39.5625 25 37.5 25C30.5958 25 25 30.5958 25 37.5C25 39.6021 25.5187 41.5833 26.4354 43.3208L24.9979 44.7604L7.33539 27.0687C2.95206 22.1604 3.11664 14.6229 7.82706 9.91041C12.5458 5.19374 20.0937 5.03541 25.0021 9.43541C29.8958 5.04166 37.4583 5.18749 42.1729 9.91041Z" fill="#0C96E6"/>
</g>
<path d="M66.7017 16.5455H69.3267V28.9205C69.3267 30.0398 69.1051 30.9972 68.6619 31.7926C68.2244 32.5881 67.608 33.196 66.8125 33.6165C66.017 34.0312 65.0852 34.2386 64.017 34.2386C63.0341 34.2386 62.1506 34.0597 61.3665 33.7017C60.5881 33.3437 59.9716 32.8239 59.517 32.142C59.0682 31.4545 58.8438 30.6193 58.8438 29.6364H61.4602C61.4602 30.1193 61.571 30.5369 61.7926 30.8892C62.0199 31.2415 62.3295 31.517 62.7216 31.7159C63.1193 31.9091 63.5739 32.0057 64.0852 32.0057C64.642 32.0057 65.1136 31.8892 65.5 31.6562C65.892 31.4176 66.1903 31.0682 66.3949 30.608C66.5994 30.1477 66.7017 29.5852 66.7017 28.9205V16.5455ZM73.1598 34V16.5455H75.7933V24.8807H76.0064L83.3274 16.5455H86.6428L79.603 24.4034L86.6683 34H83.4979L77.8558 26.2017L75.7933 28.571V34H73.1598ZM89.0973 34V16.5455H91.7308V31.733H99.6399V34H89.0973ZM108.996 34V16.5455H111.629V24.1307H120.331V16.5455H122.973V34H120.331V26.3892H111.629V34H108.996ZM132.246 34.2642C130.956 34.2642 129.845 33.9886 128.913 33.4375C127.987 32.8807 127.271 32.0994 126.766 31.0938C126.266 30.0824 126.016 28.8977 126.016 27.5398C126.016 26.1989 126.266 25.017 126.766 23.9943C127.271 22.9716 127.976 22.1733 128.879 21.5994C129.788 21.0256 130.851 20.7386 132.067 20.7386C132.805 20.7386 133.521 20.8608 134.214 21.1051C134.908 21.3494 135.53 21.733 136.081 22.2557C136.632 22.7784 137.067 23.4574 137.385 24.2926C137.703 25.1222 137.862 26.1307 137.862 27.3182V28.2216H127.456V26.3125H135.365C135.365 25.642 135.229 25.0483 134.956 24.5312C134.683 24.0085 134.3 23.5966 133.805 23.2955C133.317 22.9943 132.743 22.8438 132.084 22.8438C131.368 22.8438 130.743 23.0199 130.209 23.3722C129.68 23.7187 129.271 24.1733 128.982 24.7358C128.697 25.2926 128.555 25.8977 128.555 26.5511V28.0426C128.555 28.9176 128.709 29.6619 129.016 30.2756C129.328 30.8892 129.763 31.358 130.32 31.6818C130.876 32 131.527 32.1591 132.271 32.1591C132.754 32.1591 133.195 32.0909 133.592 31.9545C133.99 31.8125 134.334 31.6023 134.624 31.3239C134.913 31.0455 135.135 30.7017 135.288 30.2926L137.7 30.7273C137.507 31.4375 137.161 32.0597 136.661 32.5938C136.166 33.1222 135.544 33.5341 134.794 33.8295C134.05 34.1193 133.2 34.2642 132.246 34.2642ZM144.499 34.2898C143.67 34.2898 142.92 34.1364 142.249 33.8295C141.579 33.517 141.048 33.0653 140.656 32.4744C140.269 31.8835 140.076 31.1591 140.076 30.3011C140.076 29.5625 140.218 28.9545 140.502 28.4773C140.786 28 141.17 27.6222 141.653 27.3438C142.136 27.0653 142.675 26.8551 143.272 26.7131C143.869 26.571 144.477 26.4631 145.096 26.3892C145.88 26.2983 146.516 26.2244 147.005 26.1676C147.494 26.1051 147.849 26.0057 148.07 25.8693C148.292 25.733 148.403 25.5114 148.403 25.2045V25.1449C148.403 24.4006 148.192 23.8239 147.772 23.4148C147.357 23.0057 146.738 22.8011 145.914 22.8011C145.056 22.8011 144.38 22.9915 143.886 23.3722C143.397 23.7472 143.059 24.1648 142.871 24.625L140.477 24.0795C140.761 23.2841 141.175 22.642 141.721 22.1534C142.272 21.6591 142.906 21.3011 143.621 21.0795C144.337 20.8523 145.09 20.7386 145.88 20.7386C146.403 20.7386 146.957 20.8011 147.542 20.9261C148.133 21.0455 148.684 21.267 149.195 21.5909C149.712 21.9148 150.136 22.3778 150.465 22.9801C150.795 23.5767 150.96 24.3523 150.96 25.3068V34H148.471V32.2102H148.369C148.204 32.5398 147.957 32.8636 147.627 33.1818C147.298 33.5 146.874 33.7642 146.357 33.9744C145.84 34.1847 145.221 34.2898 144.499 34.2898ZM145.053 32.2443C145.758 32.2443 146.36 32.1051 146.86 31.8267C147.366 31.5483 147.749 31.1847 148.011 30.7358C148.278 30.2812 148.411 29.7955 148.411 29.2784V27.5909C148.32 27.6818 148.144 27.767 147.883 27.8466C147.627 27.9205 147.335 27.9858 147.005 28.0426C146.675 28.0937 146.354 28.142 146.042 28.1875C145.729 28.2273 145.468 28.2614 145.258 28.2898C144.763 28.3523 144.312 28.4574 143.903 28.6051C143.499 28.7528 143.175 28.9659 142.931 29.2443C142.692 29.517 142.573 29.8807 142.573 30.3352C142.573 30.9659 142.806 31.4432 143.272 31.767C143.738 32.0852 144.332 32.2443 145.053 32.2443ZM156.902 16.5455V34H154.354V16.5455H156.902ZM166.441 20.9091V22.9545H159.29V20.9091H166.441ZM161.208 17.7727H163.756V30.1562C163.756 30.6506 163.83 31.0227 163.978 31.2727C164.126 31.517 164.316 31.6847 164.549 31.7756C164.788 31.8608 165.046 31.9034 165.325 31.9034C165.529 31.9034 165.708 31.8892 165.862 31.8608C166.015 31.8324 166.134 31.8097 166.219 31.7926L166.68 33.8977C166.532 33.9545 166.322 34.0114 166.049 34.0682C165.776 34.1307 165.435 34.1648 165.026 34.1705C164.356 34.1818 163.731 34.0625 163.151 33.8125C162.572 33.5625 162.103 33.1761 161.745 32.6534C161.387 32.1307 161.208 31.4744 161.208 30.6847V17.7727ZM172.089 26.2273V34H169.541V16.5455H172.055V23.0398H172.217C172.524 22.3352 172.993 21.7756 173.624 21.3608C174.254 20.946 175.078 20.7386 176.095 20.7386C176.993 20.7386 177.777 20.9233 178.447 21.2926C179.124 21.6619 179.646 22.2131 180.016 22.946C180.391 23.6733 180.578 24.5824 180.578 25.6733V34H178.03V25.9801C178.03 25.0199 177.783 24.2756 177.288 23.7472C176.794 23.2131 176.107 22.946 175.226 22.946C174.624 22.946 174.084 23.0739 173.607 23.3295C173.135 23.5852 172.763 23.9602 172.49 24.4545C172.223 24.9432 172.089 25.5341 172.089 26.2273ZM189.493 34.2642C188.226 34.2642 187.135 33.9773 186.22 33.4034C185.311 32.8239 184.612 32.0256 184.124 31.0085C183.635 29.9915 183.391 28.8267 183.391 27.5142C183.391 26.1847 183.641 25.0114 184.141 23.9943C184.641 22.9716 185.345 22.1733 186.254 21.5994C187.163 21.0256 188.234 20.7386 189.467 20.7386C190.462 20.7386 191.348 20.9233 192.126 21.2926C192.905 21.6562 193.533 22.1676 194.01 22.8267C194.493 23.4858 194.78 24.2557 194.871 25.1364H192.391C192.254 24.5227 191.942 23.9943 191.453 23.5511C190.97 23.108 190.322 22.8864 189.51 22.8864C188.8 22.8864 188.178 23.0739 187.643 23.4489C187.115 23.8182 186.703 24.3466 186.408 25.0341C186.112 25.7159 185.964 26.5227 185.964 27.4545C185.964 28.4091 186.109 29.233 186.399 29.9261C186.689 30.6193 187.098 31.1562 187.626 31.5369C188.161 31.9176 188.788 32.108 189.51 32.108C189.993 32.108 190.43 32.0199 190.822 31.8438C191.22 31.6619 191.553 31.4034 191.82 31.0682C192.092 30.733 192.283 30.3295 192.391 29.858H194.871C194.78 30.7045 194.504 31.4602 194.044 32.125C193.584 32.7898 192.967 33.3125 192.195 33.6932C191.428 34.0739 190.527 34.2642 189.493 34.2642ZM201.406 34.2898C200.576 34.2898 199.826 34.1364 199.156 33.8295C198.485 33.517 197.954 33.0653 197.562 32.4744C197.175 31.8835 196.982 31.1591 196.982 30.3011C196.982 29.5625 197.124 28.9545 197.408 28.4773C197.692 28 198.076 27.6222 198.559 27.3438C199.042 27.0653 199.582 26.8551 200.178 26.7131C200.775 26.571 201.383 26.4631 202.002 26.3892C202.786 26.2983 203.423 26.2244 203.911 26.1676C204.4 26.1051 204.755 26.0057 204.977 25.8693C205.198 25.733 205.309 25.5114 205.309 25.2045V25.1449C205.309 24.4006 205.099 23.8239 204.678 23.4148C204.263 23.0057 203.644 22.8011 202.82 22.8011C201.962 22.8011 201.286 22.9915 200.792 23.3722C200.303 23.7472 199.965 24.1648 199.778 24.625L197.383 24.0795C197.667 23.2841 198.082 22.642 198.627 22.1534C199.178 21.6591 199.812 21.3011 200.528 21.0795C201.244 20.8523 201.996 20.7386 202.786 20.7386C203.309 20.7386 203.863 20.8011 204.448 20.9261C205.039 21.0455 205.59 21.267 206.102 21.5909C206.619 21.9148 207.042 22.3778 207.371 22.9801C207.701 23.5767 207.866 24.3523 207.866 25.3068V34H205.377V32.2102H205.275C205.11 32.5398 204.863 32.8636 204.533 33.1818C204.204 33.5 203.781 33.7642 203.263 33.9744C202.746 34.1847 202.127 34.2898 201.406 34.2898ZM201.96 32.2443C202.664 32.2443 203.266 32.1051 203.766 31.8267C204.272 31.5483 204.656 31.1847 204.917 30.7358C205.184 30.2812 205.317 29.7955 205.317 29.2784V27.5909C205.227 27.6818 205.05 27.767 204.789 27.8466C204.533 27.9205 204.241 27.9858 203.911 28.0426C203.582 28.0937 203.261 28.142 202.948 28.1875C202.636 28.2273 202.374 28.2614 202.164 28.2898C201.67 28.3523 201.218 28.4574 200.809 28.6051C200.406 28.7528 200.082 28.9659 199.837 29.2443C199.599 29.517 199.479 29.8807 199.479 30.3352C199.479 30.9659 199.712 31.4432 200.178 31.767C200.644 32.0852 201.238 32.2443 201.96 32.2443ZM211.26 34V20.9091H213.723V22.9886H213.859C214.098 22.2841 214.518 21.7301 215.121 21.3267C215.729 20.9176 216.416 20.7131 217.183 20.7131C217.342 20.7131 217.53 20.7187 217.746 20.7301C217.967 20.7415 218.141 20.7557 218.266 20.7727V23.2102C218.163 23.1818 217.982 23.1506 217.72 23.1165C217.459 23.0767 217.197 23.0568 216.936 23.0568C216.334 23.0568 215.797 23.1847 215.325 23.4403C214.859 23.6903 214.49 24.0398 214.217 24.4886C213.945 24.9318 213.808 25.4375 213.808 26.0057V34H211.26ZM225.644 34.2642C224.354 34.2642 223.244 33.9886 222.312 33.4375C221.386 32.8807 220.67 32.0994 220.164 31.0938C219.664 30.0824 219.414 28.8977 219.414 27.5398C219.414 26.1989 219.664 25.017 220.164 23.9943C220.67 22.9716 221.374 22.1733 222.278 21.5994C223.187 21.0256 224.249 20.7386 225.465 20.7386C226.204 20.7386 226.92 20.8608 227.613 21.1051C228.306 21.3494 228.928 21.733 229.479 22.2557C230.031 22.7784 230.465 23.4574 230.783 24.2926C231.102 25.1222 231.261 26.1307 231.261 27.3182V28.2216H220.854V26.3125H228.763C228.763 25.642 228.627 25.0483 228.354 24.5312C228.082 24.0085 227.698 23.5966 227.204 23.2955C226.715 22.9943 226.141 22.8438 225.482 22.8438C224.766 22.8438 224.141 23.0199 223.607 23.3722C223.079 23.7187 222.67 24.1733 222.38 24.7358C222.096 25.2926 221.954 25.8977 221.954 26.5511V28.0426C221.954 28.9176 222.107 29.6619 222.414 30.2756C222.727 30.8892 223.161 31.358 223.718 31.6818C224.275 32 224.925 32.1591 225.67 32.1591C226.153 32.1591 226.593 32.0909 226.991 31.9545C227.388 31.8125 227.732 31.6023 228.022 31.3239C228.312 31.0455 228.533 30.7017 228.687 30.2926L231.099 30.7273C230.906 31.4375 230.559 32.0597 230.059 32.5938C229.565 33.1222 228.942 33.5341 228.192 33.8295C227.448 34.1193 226.599 34.2642 225.644 34.2642Z" fill="#0C96E6"/>
<defs>
<clipPath id="clip0_154_2">
<rect width="50" height="50" fill="white"/>
</clipPath>
</defs>
</svg>
